<svg width="19" height="19" viewBox="0 0 19 19" fill="none" xmlns="http://www.w3.org/2000/svg">
<g clip-path="url(#clip0_92_41998)">
<path d="M18.7735 9.67775C18.7735 8.89933 18.7103 8.33129 18.5736 7.74222H9.68481V11.2556H14.9023C14.7972 12.1288 14.2292 13.4437 12.9668 14.3272L12.9491 14.4449L15.7596 16.6221L15.9543 16.6415C17.7426 14.99 18.7735 12.56 18.7735 9.67775Z" fill="#4285F4"/>
<path d="M9.68483 18.9347C12.241 18.9347 14.3869 18.0932 15.9543 16.6415L12.9668 14.3272C12.1674 14.8848 11.0944 15.274 9.68483 15.274C7.18126 15.274 5.05638 13.6225 4.29891 11.3398L4.18789 11.3492L1.26551 13.6109L1.22729 13.7171C2.78413 16.8098 5.98201 18.9347 9.68483 18.9347Z" fill="#34A853"/>
<path d="M4.29898 11.3398C4.09911 10.7507 3.98345 10.1195 3.98345 9.46736C3.98345 8.81513 4.09911 8.18399 4.28846 7.59492L4.28317 7.46946L1.32417 5.17148L1.22736 5.21753C0.585709 6.5009 0.217529 7.94207 0.217529 9.46736C0.217529 10.9927 0.585709 12.4338 1.22736 13.7171L4.29898 11.3398Z" fill="#FBBC05"/>
<path d="M9.68483 3.66069C11.4626 3.66069 12.6617 4.4286 13.3455 5.07032L16.0174 2.46152C14.3765 0.936221 12.241 0 9.68483 0C5.98201 0 2.78413 2.12488 1.22729 5.21753L4.2884 7.59492C5.05638 5.31224 7.18126 3.66069 9.68483 3.66069Z" fill="#EB4335"/>
</g>
<defs>
<clipPath id="clip0_92_41998">
<rect width="19" height="19" fill="white"/>
</clipPath>
</defs>
</svg>
